<svg width="1280" height="400" viewBox="0 0 680 200" xmlns="http://www.w3.org/2000/svg">
  <rect width="680" height="200" fill="#2A0E4F"/>

  <rect x="20" y="20" width="4" height="4" fill="#D4CCFF" opacity="0.6"/>
  <rect x="80" y="14" width="3" height="3" fill="#F5E86B" opacity="0.7"/>
  <rect x="150" y="30" width="2" height="2" fill="#D4CCFF" opacity="0.5"/>
  <rect x="220" y="10" width="4" height="4" fill="#F5E86B" opacity="0.8"/>
  <rect x="290" y="25" width="2" height="2" fill="#D4CCFF" opacity="0.4"/>
  <rect x="360" y="12" width="3" height="3" fill="#F5E86B" opacity="0.6"/>
  <rect x="430" y="28" width="2" height="2" fill="#D4CCFF" opacity="0.5"/>
  <rect x="500" y="16" width="4" height="4" fill="#F5E86B" opacity="0.7"/>
  <rect x="570" y="22" width="3" height="3" fill="#D4CCFF" opacity="0.6"/>
  <rect x="640" y="10" width="2" height="2" fill="#F5E86B" opacity="0.5"/>
  <rect x="55" y="50" width="2" height="2" fill="#F0A8D0" opacity="0.4"/>
  <rect x="180" y="55" width="3" height="3" fill="#D4CCFF" opacity="0.3"/>
  <rect x="320" y="45" width="2" height="2" fill="#F5E86B" opacity="0.5"/>
  <rect x="460" y="52" width="2" height="2" fill="#D4CCFF" opacity="0.4"/>
  <rect x="610" y="48" width="3" height="3" fill="#F0A8D0" opacity="0.3"/>

  <ellipse cx="560" cy="55" rx="36" ry="36" fill="#4B1F7A"/>
  <ellipse cx="588" cy="55" rx="30" ry="30" fill="#2A0E4F"/>

  <ellipse cx="100" cy="148" rx="55" ry="22" fill="#E87BB8" opacity="0.5"/>
  <ellipse cx="100" cy="148" rx="40" ry="16" fill="#F0A8D0" opacity="0.6"/>
  <ellipse cx="200" cy="158" rx="70" ry="26" fill="#E87BB8" opacity="0.4"/>
  <ellipse cx="200" cy="158" rx="50" ry="18" fill="#F0A8D0" opacity="0.55"/>
  <ellipse cx="420" cy="152" rx="60" ry="20" fill="#E87BB8" opacity="0.45"/>
  <ellipse cx="420" cy="152" rx="44" ry="14" fill="#F7C8E5" opacity="0.5"/>
  <ellipse cx="570" cy="162" rx="75" ry="24" fill="#E87BB8" opacity="0.35"/>
  <ellipse cx="570" cy="162" rx="55" ry="17" fill="#F0A8D0" opacity="0.5"/>

  <text x="340" y="98" text-anchor="middle" font-family="-apple-system, BlinkMacSystemFont, 'Segoe UI', sans-serif" font-size="52" font-weight="700" fill="#FDEAF5" letter-spacing="-1">snozz</text>
  <text x="340" y="124" text-anchor="middle" font-family="-apple-system, BlinkMacSystemFont, 'Segoe UI', sans-serif" font-size="13" font-weight="400" fill="#B8A4E8" letter-spacing="3">SOFTWARE ENGINEERING · AI TRACK</text>
</svg>
